<svg width="15" height="15" viewBox="0 0 15 15" fill="none" xmlns="http://www.w3.org/2000/svg">
<rect x="0.5" y="0.875" width="14" height="14" rx="2" fill="#EEEEEE"/>
<g clip-path="url(#clip0_115_1637)">
<path d="M9.71764 11.8378L7.49998 10.3889L5.28232 11.8376C5.24273 11.8634 5.19666 11.8763 5.15001 11.8746C5.10337 11.8729 5.05827 11.8567 5.0205 11.8281C4.98274 11.7994 4.95402 11.7597 4.93803 11.7139C4.92204 11.6681 4.91951 11.6184 4.93076 11.5711L5.56529 8.92129L3.58373 7.16736C3.54784 7.136 3.52176 7.09413 3.50886 7.04716C3.49596 7.00018 3.49683 6.95025 3.51136 6.9038C3.52588 6.85734 3.55339 6.81649 3.59035 6.78651C3.62731 6.75653 3.67202 6.73878 3.71873 6.73557L6.30498 6.54699L7.28248 4.01398C7.35435 3.82965 7.6456 3.82965 7.71748 4.01398L8.6956 6.54699L11.2812 6.73557C11.3279 6.7389 11.3725 6.75673 11.4094 6.78676C11.4463 6.81679 11.4737 6.85765 11.4881 6.90408C11.5026 6.95051 11.5034 7.00039 11.4905 7.04731C11.4775 7.09423 11.4515 7.13604 11.4156 7.16736L9.43467 8.92129L10.0692 11.5711C10.0804 11.6184 10.0779 11.6681 10.0619 11.7139C10.0459 11.7597 10.0172 11.7994 9.97945 11.8281C9.94169 11.8567 9.89659 11.8729 9.84995 11.8746C9.8033 11.8763 9.75723 11.8634 9.71764 11.8376V11.8378Z" fill="#ABABAB"/>
</g>
<defs>
<clipPath id="clip0_115_1637">
<rect width="8" height="8" fill="white" transform="translate(3.5 3.875)"/>
</clipPath>
</defs>
</svg>
