<svg width="205" height="173" viewBox="0 0 205 173" fill="none" xmlns="http://www.w3.org/2000/svg">
<path fill-rule="evenodd" clip-rule="evenodd" d="M91.8171 55.0784L62.5938 0H51.0984L68.972 33.6228H57.5736L39.6273 0H28.132L46.0056 33.6228H34.5345L16.6609 0H5.16562L31.309 49.2005H19.8379L11.4953 33.7195H0L16.3457 64.2703L47.7274 80.0657H75.3502L36.2079 99.7798L109.618 173L118.761 157.93H129.092L142.94 131.153H165.664L181.258 141.264L205 126.751V93.2487L193.844 84.3955H161.274L153.756 78.7111L170.951 70.0514L187.199 39.5007H175.704L167.41 55.0784H155.939L178.638 12.409H167.119L137.071 68.9629H125.6L141.242 39.5007H129.747L121.477 55.0784H91.8171ZM136.368 86.7419C137.26 86.7419 138.132 87.0058 138.874 87.5001C139.615 87.9945 140.194 88.6972 140.535 89.5193C140.876 90.3414 140.966 91.246 140.792 92.1188C140.618 92.9915 140.188 93.7932 139.557 94.4224C138.926 95.0516 138.123 95.4802 137.248 95.6538C136.373 95.8274 135.466 95.7383 134.641 95.3977C133.817 95.0572 133.113 94.4805 132.617 93.7406C132.121 93.0007 131.857 92.1309 131.857 91.241C131.857 90.6502 131.973 90.0652 132.2 89.5193C132.427 88.9734 132.759 88.4774 133.178 88.0597C133.597 87.6419 134.094 87.3105 134.641 87.0844C135.189 86.8583 135.775 86.7419 136.368 86.7419ZM89.4162 29.0268L98.2196 12.4816H109.715L98.3893 33.7921H109.86L121.186 12.4816H132.754L115.438 45.04H98.0013L89.4162 29.0268Z" fill="#0D81FC"/>
</svg>
