<svg width="860" height="726" viewBox="0 0 860 726" fill="none" xmlns="http://www.w3.org/2000/svg">
<path fill-rule="evenodd" clip-rule="evenodd" d="M385.184 231.138L262.589 0H214.364L289.346 141.099H241.528L166.242 0H118.017L192.999 141.099H144.876L69.8947 0H21.6704L131.345 206.471H83.2225L48.2243 141.505H0L68.5721 269.712L200.222 335.998H316.103L151.896 418.729L459.86 726L498.216 662.759H541.557L599.65 550.388H694.979L760.398 592.819L860 531.913V391.321L813.2 354.169H676.565L645.026 330.314L717.158 293.973L785.324 165.766H737.099L702.304 231.138H654.182L749.41 52.0746H701.084L575.029 289.405H526.906L592.528 165.766H544.304L509.611 231.138H385.184ZM572.079 364.015C575.821 364.015 579.48 365.122 582.592 367.197C585.704 369.272 588.129 372.221 589.562 375.671C590.994 379.121 591.369 382.917 590.638 386.579C589.908 390.242 588.106 393.606 585.46 396.247C582.813 398.887 579.441 400.686 575.77 401.414C572.1 402.143 568.295 401.769 564.837 400.34C561.379 398.911 558.424 396.49 556.344 393.386C554.265 390.281 553.155 386.63 553.155 382.896C553.155 380.416 553.645 377.961 554.596 375.671C555.547 373.38 556.94 371.298 558.698 369.545C560.455 367.792 562.541 366.401 564.837 365.452C567.133 364.503 569.594 364.015 572.079 364.015ZM375.112 121.812L412.043 52.3792H460.267L412.755 141.81H460.878L508.39 52.3792H556.919L484.278 189.012H411.127L375.112 121.812Z" fill="#0D81FC" fill-opacity="0.3"/>
</svg>
