<svg width="15" height="15" viewBox="0 0 15 15" fill="none" xmlns="http://www.w3.org/2000/svg">
<rect x="0.5" y="0.125" width="14" height="14" rx="2" fill="#EEEEEE"/>
<g clip-path="url(#clip0_115_1695)">
<path d="M9.71764 11.0878L7.49998 9.63893L5.28232 11.0876C5.24273 11.1134 5.19666 11.1263 5.15001 11.1246C5.10337 11.1229 5.05827 11.1067 5.0205 11.0781C4.98274 11.0494 4.95402 11.0097 4.93803 10.9639C4.92204 10.9181 4.91951 10.8684 4.93076 10.8211L5.56529 8.17129L3.58373 6.41736C3.54784 6.386 3.52176 6.34413 3.50886 6.29716C3.49596 6.25018 3.49683 6.20025 3.51136 6.1538C3.52588 6.10734 3.55339 6.06649 3.59035 6.03651C3.62731 6.00653 3.67202 5.98878 3.71873 5.98557L6.30498 5.79699L7.28248 3.26398C7.35435 3.07965 7.6456 3.07965 7.71748 3.26398L8.6956 5.79699L11.2812 5.98557C11.3279 5.9889 11.3725 6.00673 11.4094 6.03676C11.4463 6.06679 11.4737 6.10765 11.4881 6.15408C11.5026 6.20051 11.5034 6.25039 11.4905 6.29731C11.4775 6.34423 11.4515 6.38604 11.4156 6.41736L9.43467 8.17129L10.0692 10.8211C10.0804 10.8684 10.0779 10.9181 10.0619 10.9639C10.0459 11.0097 10.0172 11.0494 9.97945 11.0781C9.94169 11.1067 9.89659 11.1229 9.84995 11.1246C9.8033 11.1263 9.75723 11.1134 9.71764 11.0876V11.0878Z" fill="#FFD600"/>
</g>
<defs>
<clipPath id="clip0_115_1695">
<rect width="8" height="8" fill="white" transform="translate(3.5 3.125)"/>
</clipPath>
</defs>
</svg>
