<svg width="476" height="129" viewBox="0 0 476 129" fill="none" xmlns="http://www.w3.org/2000/svg">
<g clip-path="url(#clip0_73_709)">
<path fill-rule="evenodd" clip-rule="evenodd" d="M369.966 30.8451L353.573 -0.0542908H347.124L357.151 18.8083H350.757L340.689 -0.0542908H334.241L344.267 18.8083H337.832L327.806 -0.0542908H321.357L336.023 27.5475H329.588L324.908 18.8626H318.459L327.629 36.0018L345.233 44.8632H360.729L338.771 55.9229L379.952 97L385.081 88.5457H390.877L398.645 73.5235H411.393L420.14 79.1958L433.459 71.0537V52.2589L427.201 47.2922H408.93L404.713 44.1032L414.358 39.2451L423.473 22.1059H417.025L412.372 30.8451H405.937L418.671 6.90723H412.209L395.353 38.6344H388.918L397.693 22.1059H391.244L386.605 30.8451H369.966ZM394.958 48.6086C395.459 48.6086 395.948 48.7566 396.364 49.0339C396.78 49.3113 397.104 49.7055 397.296 50.1667C397.487 50.6279 397.538 51.1354 397.44 51.625C397.342 52.1147 397.101 52.5644 396.747 52.9174C396.394 53.2704 395.943 53.5108 395.452 53.6082C394.961 53.7056 394.452 53.6556 393.99 53.4645C393.527 53.2735 393.132 52.95 392.854 52.5349C392.576 52.1198 392.428 51.6318 392.428 51.1326C392.428 50.8011 392.493 50.4729 392.62 50.1667C392.747 49.8605 392.934 49.5822 393.169 49.3478C393.404 49.1135 393.683 48.9275 393.99 48.8007C394.297 48.6738 394.626 48.6086 394.958 48.6086ZM368.62 16.23L373.558 6.94795H380.007L373.653 18.9033H380.088L386.442 6.94795H392.931L383.217 25.2135H373.436L368.62 16.23Z" fill="#F7ED1D"/>
</g>
<path d="M51.9198 61.6V88H44.9854V64.2048L46.5342 64.3808L36.3262 88H28.9342L18.691 64.4512L20.275 64.2752V88H13.3406V61.6H24.6046L34.0734 84.2688H31.2574L40.6558 61.6H51.9198ZM71.3617 88.5632C68.2406 88.5632 65.495 87.9883 63.1249 86.8384C60.7782 85.6885 58.9478 84.0811 57.6337 82.016C56.343 79.9509 55.6977 77.5456 55.6977 74.8C55.6977 72.0544 56.343 69.6491 57.6337 67.584C58.9478 65.5189 60.7782 63.9115 63.1249 62.7616C65.495 61.6117 68.2406 61.0368 71.3617 61.0368C74.5062 61.0368 77.2518 61.6117 79.5985 62.7616C81.9452 63.9115 83.7756 65.5189 85.0897 67.584C86.4038 69.6491 87.0609 72.0544 87.0609 74.8C87.0609 77.5456 86.4038 79.9509 85.0897 82.016C83.7756 84.0811 81.9452 85.6885 79.5985 86.8384C77.2518 87.9883 74.5062 88.5632 71.3617 88.5632ZM71.3617 82.0512C73.0748 82.0512 74.5532 81.7579 75.7969 81.1712C77.0406 80.5845 77.991 79.7515 78.6481 78.672C79.3286 77.5925 79.6689 76.3019 79.6689 74.8C79.6689 73.2981 79.3286 72.0075 78.6481 70.928C77.991 69.8485 77.0406 69.0155 75.7969 68.4288C74.5532 67.8421 73.0748 67.5488 71.3617 67.5488C69.6721 67.5488 68.2054 67.8421 66.9617 68.4288C65.718 69.0155 64.7558 69.8485 64.0753 70.928C63.3948 72.0075 63.0545 73.2981 63.0545 74.8C63.0545 76.3019 63.3948 77.5925 64.0753 78.672C64.7558 79.7515 65.718 80.5845 66.9617 81.1712C68.2054 81.7579 69.6721 82.0512 71.3617 82.0512ZM105.324 88.5632C102.203 88.5632 99.4575 87.9883 97.0874 86.8384C94.7407 85.6885 92.9103 84.0811 91.5962 82.016C90.3055 79.9509 89.6602 77.5456 89.6602 74.8C89.6602 72.0544 90.3055 69.6491 91.5962 67.584C92.9103 65.5189 94.7407 63.9115 97.0874 62.7616C99.4575 61.6117 102.203 61.0368 105.324 61.0368C108.469 61.0368 111.214 61.6117 113.561 62.7616C115.908 63.9115 117.738 65.5189 119.052 67.584C120.366 69.6491 121.023 72.0544 121.023 74.8C121.023 77.5456 120.366 79.9509 119.052 82.016C117.738 84.0811 115.908 85.6885 113.561 86.8384C111.214 87.9883 108.469 88.5632 105.324 88.5632ZM105.324 82.0512C107.037 82.0512 108.516 81.7579 109.759 81.1712C111.003 80.5845 111.954 79.7515 112.611 78.672C113.291 77.5925 113.631 76.3019 113.631 74.8C113.631 73.2981 113.291 72.0075 112.611 70.928C111.954 69.8485 111.003 69.0155 109.759 68.4288C108.516 67.8421 107.037 67.5488 105.324 67.5488C103.635 67.5488 102.168 67.8421 100.924 68.4288C99.6805 69.0155 98.7183 69.8485 98.0378 70.928C97.3573 72.0075 97.017 73.2981 97.017 74.8C97.017 76.3019 97.3573 77.5925 98.0378 78.672C98.7183 79.7515 99.6805 80.5845 100.924 81.1712C102.168 81.7579 103.635 82.0512 105.324 82.0512ZM123.588 79.3408H131.015C131.132 80.0683 131.472 80.7019 132.036 81.2416C132.599 81.7813 133.35 82.2037 134.288 82.5088C135.25 82.7904 136.377 82.9312 137.668 82.9312C139.451 82.9312 140.859 82.7083 141.892 82.2624C142.924 81.7931 143.44 81.1125 143.44 80.2208C143.44 79.5403 143.147 79.0123 142.56 78.6368C141.974 78.2613 140.847 77.9915 139.181 77.8272L134.253 77.3696C130.616 77.0411 127.976 76.2197 126.333 74.9056C124.69 73.568 123.869 71.7728 123.869 69.52C123.869 67.6896 124.397 66.1408 125.453 64.8736C126.533 63.6064 128.034 62.656 129.959 62.0224C131.906 61.3653 134.171 61.0368 136.752 61.0368C139.287 61.0368 141.54 61.4005 143.511 62.128C145.482 62.832 147.042 63.8411 148.192 65.1552C149.366 66.4693 149.999 67.9947 150.093 69.7312H142.701C142.607 69.0976 142.302 68.5579 141.786 68.112C141.293 67.6427 140.613 67.2907 139.744 67.056C138.876 66.7979 137.832 66.6688 136.612 66.6688C134.969 66.6688 133.666 66.8917 132.704 67.3376C131.742 67.76 131.261 68.3936 131.261 69.2384C131.261 69.8485 131.543 70.3413 132.106 70.7168C132.693 71.0923 133.737 71.3504 135.239 71.4912L140.484 72.0192C142.994 72.2539 145.001 72.6645 146.503 73.2512C148.005 73.8144 149.096 74.6005 149.776 75.6096C150.457 76.6187 150.797 77.8741 150.797 79.376C150.797 81.2299 150.246 82.8491 149.143 84.2336C148.04 85.5947 146.491 86.6624 144.496 87.4368C142.502 88.1877 140.178 88.5632 137.527 88.5632C134.805 88.5632 132.399 88.1877 130.311 87.4368C128.246 86.6624 126.626 85.5829 125.453 84.1984C124.28 82.7904 123.658 81.1712 123.588 79.3408ZM176.91 72.16V77.44H157.585V72.16H176.91ZM162.548 74.8L160.824 85.3952L157.867 82.0864H178.072V88H153.537L155.544 74.8L153.537 61.6H177.896V67.5136H157.867L160.824 64.2048L162.548 74.8ZM182.294 61.6H189.58V88H182.294V61.6ZM203.062 61.6H210.383V88H203.062V61.6ZM186.377 71.3504H206.089V77.8272H186.377V71.3504ZM229.83 88.5632C226.709 88.5632 223.964 87.9883 221.594 86.8384C219.247 85.6885 217.417 84.0811 216.102 82.016C214.812 79.9509 214.166 77.5456 214.166 74.8C214.166 72.0544 214.812 69.6491 216.102 67.584C217.417 65.5189 219.247 63.9115 221.594 62.7616C223.964 61.6117 226.709 61.0368 229.83 61.0368C232.975 61.0368 235.721 61.6117 238.067 62.7616C240.414 63.9115 242.244 65.5189 243.558 67.584C244.873 69.6491 245.53 72.0544 245.53 74.8C245.53 77.5456 244.873 79.9509 243.558 82.016C242.244 84.0811 240.414 85.6885 238.067 86.8384C235.721 87.9883 232.975 88.5632 229.83 88.5632ZM229.83 82.0512C231.544 82.0512 233.022 81.7579 234.266 81.1712C235.509 80.5845 236.46 79.7515 237.117 78.672C237.797 77.5925 238.138 76.3019 238.138 74.8C238.138 73.2981 237.797 72.0075 237.117 70.928C236.46 69.8485 235.509 69.0155 234.266 68.4288C233.022 67.8421 231.544 67.5488 229.83 67.5488C228.141 67.5488 226.674 67.8421 225.43 68.4288C224.187 69.0155 223.225 69.8485 222.544 70.928C221.864 72.0075 221.523 73.2981 221.523 74.8C221.523 76.3019 221.864 77.5925 222.544 78.672C223.225 79.7515 224.187 80.5845 225.43 81.1712C226.674 81.7579 228.141 82.0512 229.83 82.0512ZM263.793 88.5632C260.672 88.5632 257.926 87.9883 255.556 86.8384C253.21 85.6885 251.379 84.0811 250.065 82.016C248.774 79.9509 248.129 77.5456 248.129 74.8C248.129 72.0544 248.774 69.6491 250.065 67.584C251.379 65.5189 253.21 63.9115 255.556 62.7616C257.926 61.6117 260.672 61.0368 263.793 61.0368C266.938 61.0368 269.683 61.6117 272.03 62.7616C274.376 63.9115 276.207 65.5189 277.521 67.584C278.835 69.6491 279.492 72.0544 279.492 74.8C279.492 77.5456 278.835 79.9509 277.521 82.016C276.207 84.0811 274.376 85.6885 272.03 86.8384C269.683 87.9883 266.938 88.5632 263.793 88.5632ZM263.793 82.0512C265.506 82.0512 266.984 81.7579 268.228 81.1712C269.472 80.5845 270.422 79.7515 271.079 78.672C271.76 77.5925 272.1 76.3019 272.1 74.8C272.1 73.2981 271.76 72.0075 271.079 70.928C270.422 69.8485 269.472 69.0155 268.228 68.4288C266.984 67.8421 265.506 67.5488 263.793 67.5488C262.103 67.5488 260.637 67.8421 259.393 68.4288C258.149 69.0155 257.187 69.8485 256.507 70.928C255.826 72.0075 255.486 73.2981 255.486 74.8C255.486 76.3019 255.826 77.5925 256.507 78.672C257.187 79.7515 258.149 80.5845 259.393 81.1712C260.637 81.7579 262.103 82.0512 263.793 82.0512ZM298.072 61.6C300.278 61.6 302.179 61.9755 303.775 62.7264C305.394 63.4773 306.626 64.5451 307.471 65.9296C308.315 67.2907 308.738 68.8864 308.738 70.7168C308.738 72.5237 308.315 74.1195 307.471 75.504C306.626 76.8651 305.394 77.9211 303.775 78.672C302.179 79.4229 300.278 79.7984 298.072 79.7984H286.632V73.9552H297.615C298.788 73.9552 299.703 73.6736 300.36 73.1104C301.017 72.5237 301.346 71.7259 301.346 70.7168C301.346 69.6843 301.017 68.8864 300.36 68.3232C299.703 67.7365 298.788 67.4432 297.615 67.4432H287.266L290.539 64.064V88H283.253V61.6H298.072ZM310.725 79.3408H318.152C318.27 80.0683 318.61 80.7019 319.173 81.2416C319.736 81.7813 320.487 82.2037 321.426 82.5088C322.388 82.7904 323.514 82.9312 324.805 82.9312C326.588 82.9312 327.996 82.7083 329.029 82.2624C330.062 81.7931 330.578 81.1125 330.578 80.2208C330.578 79.5403 330.284 79.0123 329.698 78.6368C329.111 78.2613 327.985 77.9915 326.319 77.8272L321.391 77.3696C317.753 77.0411 315.113 76.2197 313.471 74.9056C311.828 73.568 311.007 71.7728 311.007 69.52C311.007 67.6896 311.535 66.1408 312.591 64.8736C313.67 63.6064 315.172 62.656 317.096 62.0224C319.044 61.3653 321.308 61.0368 323.89 61.0368C326.424 61.0368 328.677 61.4005 330.648 62.128C332.619 62.832 334.18 63.8411 335.33 65.1552C336.503 66.4693 337.137 67.9947 337.231 69.7312H329.839C329.745 69.0976 329.44 68.5579 328.923 68.112C328.431 67.6427 327.75 67.2907 326.882 67.056C326.014 66.7979 324.969 66.6688 323.749 66.6688C322.106 66.6688 320.804 66.8917 319.842 67.3376C318.88 67.76 318.399 68.3936 318.399 69.2384C318.399 69.8485 318.68 70.3413 319.243 70.7168C319.83 71.0923 320.874 71.3504 322.376 71.4912L327.621 72.0192C330.132 72.2539 332.138 72.6645 333.64 73.2512C335.142 73.8144 336.233 74.6005 336.914 75.6096C337.594 76.6187 337.935 77.8741 337.935 79.376C337.935 81.2299 337.383 82.8491 336.28 84.2336C335.177 85.5947 333.628 86.6624 331.634 87.4368C329.639 88.1877 327.316 88.5632 324.664 88.5632C321.942 88.5632 319.537 88.1877 317.448 87.4368C315.383 86.6624 313.764 85.5829 312.591 84.1984C311.417 82.7904 310.795 81.1712 310.725 79.3408Z" fill="#F7ED1D"/>
<path d="M56.2327 105.248H64.8567V107.104H56.2327V105.248ZM65.1127 100V101.856H56.1687L57.3207 100.656V112H55.2087V100H65.1127ZM74.7644 105.408H79.6444C80.3484 105.408 80.9031 105.248 81.3084 104.928C81.7244 104.608 81.9324 104.171 81.9324 103.616C81.9324 103.051 81.7244 102.613 81.3084 102.304C80.9031 101.984 80.3484 101.824 79.6444 101.824H74.4604L75.4044 100.64V112H73.2924V100H79.8364C80.6791 100 81.4151 100.155 82.0444 100.464C82.6844 100.763 83.1804 101.184 83.5324 101.728C83.8951 102.261 84.0764 102.891 84.0764 103.616C84.0764 104.32 83.8951 104.944 83.5324 105.488C83.1804 106.021 82.6844 106.443 82.0444 106.752C81.4151 107.051 80.6791 107.2 79.8364 107.2H74.7644V105.408ZM77.1324 106.384H79.6124L84.3804 112H81.8524L77.1324 106.384ZM92.5012 100H94.6132V112H92.5012V100ZM113.122 105.12V106.88H104.738V105.12H113.122ZM106.13 106L105.282 111.36L104.274 110.176H113.586V112H103.122L104.082 106L103.122 100H113.506V101.824H104.274L105.282 100.64L106.13 106ZM133.148 110.72L132.284 110.816V100H134.332V112H131.644L123.228 101.184L124.076 101.088V112H122.028V100H124.78L133.148 110.72ZM148.676 100C150.042 100 151.236 100.251 152.26 100.752C153.295 101.253 154.1 101.957 154.676 102.864C155.252 103.76 155.54 104.805 155.54 106C155.54 107.195 155.252 108.245 154.676 109.152C154.1 110.048 153.295 110.747 152.26 111.248C151.236 111.749 150.042 112 148.676 112H143.252V100H148.676ZM145.364 111.264L144.196 110.144H148.82C149.738 110.144 150.538 109.973 151.22 109.632C151.914 109.28 152.447 108.795 152.82 108.176C153.204 107.547 153.396 106.821 153.396 106C153.396 105.168 153.204 104.443 152.82 103.824C152.447 103.205 151.914 102.725 151.22 102.384C150.538 102.032 149.738 101.856 148.82 101.856H144.196L145.364 100.736V111.264ZM165.948 100V111.056L165.004 110.144H174.044V112H163.836V100H165.948ZM183.887 112V106.272H185.999V112H183.887ZM178.223 100H180.607L185.503 106.144H184.367L189.263 100H191.647L185.615 107.568L184.271 107.584L178.223 100ZM221.385 106.784C221.374 107.531 221.23 108.235 220.953 108.896C220.675 109.547 220.281 110.123 219.769 110.624C219.257 111.125 218.633 111.52 217.897 111.808C217.171 112.085 216.339 112.224 215.401 112.224C214.451 112.224 213.571 112.08 212.761 111.792C211.95 111.504 211.241 111.093 210.633 110.56C210.035 110.016 209.571 109.36 209.241 108.592C208.91 107.824 208.745 106.96 208.745 106C208.745 105.04 208.91 104.176 209.241 103.408C209.582 102.64 210.057 101.989 210.665 101.456C211.273 100.912 211.987 100.496 212.809 100.208C213.63 99.92 214.531 99.776 215.513 99.776C216.739 99.776 217.811 99.9787 218.729 100.384C219.657 100.779 220.403 101.323 220.969 102.016C221.534 102.709 221.881 103.504 222.009 104.4H219.865C219.747 103.835 219.491 103.344 219.097 102.928C218.713 102.512 218.217 102.192 217.609 101.968C217.001 101.744 216.297 101.632 215.497 101.632C214.558 101.632 213.742 101.808 213.049 102.16C212.366 102.501 211.833 102.997 211.449 103.648C211.075 104.299 210.889 105.083 210.889 106C210.889 106.917 211.081 107.707 211.465 108.368C211.859 109.029 212.414 109.536 213.129 109.888C213.843 110.24 214.686 110.416 215.657 110.416C216.595 110.416 217.417 110.256 218.121 109.936C218.825 109.616 219.379 109.173 219.785 108.608C220.19 108.032 220.409 107.365 220.441 106.608L221.385 106.784ZM216.073 107.696V106.096H222.137V112H220.569L220.313 107.024L220.809 107.696H216.073ZM232.131 109.248V107.504H240.515V109.248H232.131ZM237.699 100L243.459 112H241.203L235.971 100.8H236.787L231.555 112H229.299L235.059 100H237.699ZM267.305 100V112H265.289V100.64L265.945 100.672L260.361 112H258.105L252.521 100.688L253.177 100.656V112H251.161V100H254.393L259.769 111.088H258.713L264.073 100H267.305ZM285.813 105.12V106.88H277.429V105.12H285.813ZM278.821 106L277.973 111.36L276.965 110.176H286.277V112H275.813L276.773 106L275.813 100H286.197V101.824H276.965L277.973 100.64L278.821 106Z" fill="white"/>
<defs>
<clipPath id="clip0_73_709">
<rect width="115" height="97" fill="white" transform="translate(318.5)"/>
</clipPath>
</defs>
</svg>
